<svg width="315" height="130" viewBox="0 0 315 130" fill="none" xmlns="http://www.w3.org/2000/svg">
<path d="M0 0H315V106C315 119.255 304.255 130 291 130H24C10.7452 130 0 119.255 0 106V0Z" fill="white"/>
<path d="M27.992 35.234C27.992 36.476 27.272 37.358 25.67 37.358H23.402V33.164H25.67C27.272 33.164 27.992 33.974 27.992 35.234ZM21.35 31.49V44H23.402V38.996H24.968L27.848 44H30.296L27.2 38.816C29.306 38.294 30.098 36.71 30.098 35.234C30.098 33.2 28.64 31.49 25.67 31.49H21.35ZM42.173 39.032C42.173 35.918 39.941 33.92 37.115 33.92C34.289 33.92 32.057 35.918 32.057 39.032C32.057 42.146 34.199 44.162 37.025 44.162C39.869 44.162 42.173 42.146 42.173 39.032ZM34.145 39.032C34.145 36.782 35.531 35.702 37.079 35.702C38.609 35.702 40.067 36.782 40.067 39.032C40.067 41.282 38.555 42.38 37.025 42.38C35.477 42.38 34.145 41.282 34.145 39.032ZM58.2596 44H60.2936V38.15C60.2936 35.378 58.5296 33.92 56.2076 33.92C54.7676 33.92 53.3636 34.676 52.7516 35.882C52.0676 34.586 50.7536 33.92 49.1876 33.92C47.9996 33.92 46.9196 34.406 46.2536 35.216V34.082H44.2016V44H46.2536V38.456C46.2536 36.638 47.2436 35.702 48.7556 35.702C50.2496 35.702 51.2396 36.638 51.2396 38.456V44H53.2736V38.456C53.2736 36.638 54.2636 35.702 55.7756 35.702C57.2696 35.702 58.2596 36.638 58.2596 38.456V44ZM67.0807 35.648C68.6107 35.648 69.8167 36.62 69.8527 38.15H64.3627C64.5787 36.584 65.6947 35.648 67.0807 35.648ZM71.7247 41.048H69.5107C69.1327 41.822 68.4307 42.434 67.1707 42.434C65.6587 42.434 64.4887 41.444 64.3447 39.806H71.9227C71.9767 39.464 71.9947 39.14 71.9947 38.798C71.9947 35.882 69.9967 33.92 67.1707 33.92C64.2367 33.92 62.2207 35.918 62.2207 39.032C62.2207 42.146 64.3267 44.162 67.1707 44.162C69.6007 44.162 71.1667 42.776 71.7247 41.048ZM72.7541 46.502H74.0861L76.2641 41.534H74.0321L72.7541 46.502ZM82.7328 44H84.7848V31.49H82.7328V44ZM87.8029 41.246C87.8029 43.262 88.9009 44 90.6649 44H92.2849V42.29H91.0249C90.1609 42.29 89.8729 41.984 89.8729 41.246V35.756H92.2849V34.082H89.8729V31.616H87.8029V34.082H86.6329V35.756H87.8029V41.246ZM93.4922 38.996C93.4922 42.056 95.5622 44.162 98.1362 44.162C99.7922 44.162 100.98 43.37 101.61 42.524V44H103.68V34.082H101.61V35.522C100.998 34.712 99.8462 33.92 98.1722 33.92C95.5622 33.92 93.4922 35.936 93.4922 38.996ZM101.61 39.032C101.61 41.174 100.152 42.38 98.6042 42.38C97.0742 42.38 95.5982 41.138 95.5982 38.996C95.5982 36.854 97.0742 35.702 98.6042 35.702C100.152 35.702 101.61 36.908 101.61 39.032ZM106.375 44H108.427V30.68H106.375V44ZM111.445 41.246C111.445 43.262 112.543 44 114.307 44H115.927V42.29H114.667C113.803 42.29 113.515 41.984 113.515 41.246V35.756H115.927V34.082H113.515V31.616H111.445V34.082H110.275V35.756H111.445V41.246ZM121.725 41.642L118.935 34.082H116.649L120.555 43.838L118.539 48.662H120.663L126.747 34.082H124.623L121.725 41.642Z" fill="#5E6282"/>
<path d="M38.0682 70.7603L31.1932 85.7603C31.1357 85.886 31.0381 85.989 30.9158 86.0533C30.7935 86.1177 30.6533 86.1396 30.5172 86.1158C30.3811 86.092 30.2567 86.0237 30.1635 85.9217C30.0703 85.8197 30.0135 85.6896 30.0021 85.5519L29.4208 78.579L22.4479 77.9977C22.3102 77.9863 22.1801 77.9295 22.0781 77.8363C21.9761 77.7431 21.9078 77.6187 21.884 77.4826C21.8602 77.3465 21.8821 77.2063 21.9465 77.084C22.0108 76.9617 22.1138 76.8641 22.2395 76.8066L37.2395 69.9316C37.3554 69.8784 37.4849 69.862 37.6104 69.8846C37.736 69.9072 37.8516 69.9676 37.9418 70.0578C38.032 70.148 38.0924 70.2636 38.115 70.3892C38.1375 70.5147 38.1212 70.6442 38.068 70.7601L38.0682 70.7603Z" fill="#080809"/>
<path d="M56.208 84H58.048V72.336H54.72V74H56.208V84ZM60.5538 78.016C60.5538 81.408 61.4498 83.968 64.7138 83.968C67.9778 83.968 68.8738 81.408 68.8738 78.016C68.8738 74.688 67.9778 72.128 64.7138 72.128C61.4498 72.128 60.5538 74.688 60.5538 78.016ZM67.0818 78.016C67.0818 80.304 66.8418 82.304 64.7138 82.304C62.5858 82.304 62.3458 80.304 62.3458 78.016C62.3458 75.84 62.5858 73.792 64.7138 73.792C66.8418 73.792 67.0818 75.84 67.0818 78.016ZM78.832 72.88H75.2V84H78.832C82.4 84 84.736 81.904 84.736 78.48C84.736 75.04 82.4 72.88 78.832 72.88ZM77.024 82.512V74.368H78.832C81.456 74.368 82.864 75.936 82.864 78.48C82.864 81.008 81.456 82.512 78.832 82.512H77.024ZM85.9358 79.552C85.9358 82.272 87.7758 84.144 90.0638 84.144C91.5358 84.144 92.5918 83.44 93.1518 82.688V84H94.9918V75.184H93.1518V76.464C92.6078 75.744 91.5838 75.04 90.0958 75.04C87.7758 75.04 85.9358 76.832 85.9358 79.552ZM93.1518 79.584C93.1518 81.488 91.8558 82.56 90.4798 82.56C89.1198 82.56 87.8078 81.456 87.8078 79.552C87.8078 77.648 89.1198 76.624 90.4798 76.624C91.8558 76.624 93.1518 77.696 93.1518 79.584ZM100.86 81.904L98.3795 75.184H96.3475L99.8195 83.856L98.0275 88.144H99.9155L105.324 75.184H103.436L100.86 81.904ZM113.276 81.536C113.18 78.352 108.204 79.344 108.204 77.568C108.204 76.976 108.716 76.576 109.692 76.576C110.684 76.576 111.276 77.104 111.34 77.872H113.164C113.068 76.112 111.756 75.04 109.756 75.04C107.676 75.04 106.364 76.176 106.364 77.584C106.364 80.816 111.484 79.824 111.484 81.552C111.484 82.16 110.924 82.608 109.868 82.608C108.86 82.608 108.172 82.016 108.108 81.296H106.22C106.3 82.896 107.788 84.144 109.9 84.144C111.98 84.144 113.276 83.024 113.276 81.536ZM118.827 74.368H121.803V84H123.627V74.368H126.587V72.88H118.827V74.368ZM130.258 79.36C130.258 77.488 131.09 76.928 132.434 76.928H132.898V75.04C131.65 75.04 130.77 75.584 130.258 76.464V75.184H128.434V84H130.258V79.36ZM134.575 84H136.399V75.184H134.575V84ZM135.503 74.016C136.143 74.016 136.655 73.504 136.655 72.848C136.655 72.192 136.143 71.68 135.503 71.68C134.847 71.68 134.335 72.192 134.335 72.848C134.335 73.504 134.847 74.016 135.503 74.016ZM140.618 76.48V75.184H138.794V88.192H140.618V82.72C141.194 83.408 142.234 84.144 143.69 84.144C146.01 84.144 147.834 82.272 147.834 79.552C147.834 76.832 146.01 75.04 143.69 75.04C142.25 75.04 141.178 75.744 140.618 76.48ZM145.978 79.552C145.978 81.456 144.666 82.56 143.29 82.56C141.93 82.56 140.618 81.488 140.618 79.584C140.618 77.696 141.93 76.624 143.29 76.624C144.666 76.624 145.978 77.648 145.978 79.552Z" fill="#5E6282"/>
<path d="M234.86 46.566H236.03V45.09C238.46 44.874 239.792 43.182 239.792 41.436C239.792 38.898 237.83 38.412 236.03 37.98V34.092C236.894 34.308 237.398 34.974 237.47 35.694H239.666C239.504 33.66 238.1 32.526 236.03 32.346V30.888H234.86V32.364C232.628 32.562 231.08 33.948 231.08 35.964C231.08 38.502 233.06 39.006 234.86 39.456V43.416C233.852 43.236 233.348 42.57 233.276 41.67H231.08C231.08 43.704 232.664 44.91 234.86 45.108V46.566ZM237.722 41.544C237.722 42.48 237.11 43.236 236.03 43.416V39.762C237.002 40.068 237.722 40.518 237.722 41.544ZM233.168 35.856C233.168 34.758 233.87 34.164 234.86 34.038V37.674C233.888 37.368 233.168 36.9 233.168 35.856ZM243.327 31.842V39.42H245.271C245.613 38.448 246.423 37.782 247.629 37.782C249.339 37.782 250.185 38.754 250.185 40.464C250.185 42.084 249.393 43.29 247.629 43.29C246.243 43.29 245.307 42.57 245.037 41.454H243.039C243.345 43.506 244.911 45 247.611 45C250.653 45 252.147 43.02 252.147 40.41C252.147 38.43 251.157 36.036 247.935 36.036C246.765 36.036 245.703 36.576 245.217 37.224V33.642H251.247V31.842H243.327ZM253.293 47.502H254.625L256.803 42.534H254.571L253.293 47.502ZM264.59 45H266.606V42.264H268.28V40.482H266.606V32.04H264.122L258.074 40.716V42.264H264.59V45ZM260.432 40.482L264.68 34.128V40.482H260.432ZM269.818 44.82H278.566V43.11H272.86C274.966 41.184 278.206 38.754 278.206 35.568C278.206 33.21 276.694 31.608 274.03 31.608C271.708 31.608 269.872 32.994 269.8 35.838H271.78C271.834 34.362 272.608 33.354 274.048 33.354C275.578 33.354 276.172 34.29 276.172 35.658C276.172 38.232 272.914 40.608 269.818 43.326V44.82ZM280.639 45H282.691V40.734L286.363 45H289.135L284.563 40.05L289.135 35.082H286.291L282.691 39.42V31.68H280.639V45Z" fill="#5E6282"/>
</svg>
